<svg xmlns="http://www.w3.org/2000/svg" xmlns:xlink="http://www.w3.org/1999/xlink" width="500" zoomAndPan="magnify" viewBox="0 0 375 374.999991" height="500" preserveAspectRatio="xMidYMid meet" version="1.0"><defs><g/><clipPath id="b31eb5644f"><path d="M 120 64 L 251 64 L 251 195 L 120 195 Z M 120 64 " clip-rule="nonzero"/></clipPath><clipPath id="db24b99e3a"><path d="M 185.238281 194.589844 C 149.230469 194.589844 120.015625 165.238281 120.015625 129.367188 C 120.015625 93.492188 149.367188 64.140625 185.238281 64.140625 C 221.25 64.140625 250.464844 93.492188 250.464844 129.367188 C 250.464844 165.238281 221.25 194.589844 185.238281 194.589844 Z M 185.238281 102.054688 C 170.15625 102.054688 158.0625 114.28125 158.0625 129.230469 C 158.0625 144.175781 170.292969 156.40625 185.238281 156.40625 C 200.1875 156.40625 212.417969 144.175781 212.417969 129.230469 C 212.417969 114.28125 200.1875 102.054688 185.238281 102.054688 Z M 185.238281 102.054688 " clip-rule="nonzero"/></clipPath><linearGradient x1="51.777462" gradientTransform="matrix(0.645783, 0, 0, 0.645783, 120.015703, 63.749998)" y1="-4.800915" x2="74.828329" gradientUnits="userSpaceOnUse" y2="215.889896" id="7311a4789a"><stop stop-opacity="1" stop-color="rgb(94.499207%, 95.698547%, 95.698547%)" offset="0"/><stop stop-opacity="1" stop-color="rgb(94.508362%, 95.706177%, 95.706177%)" offset="0.0625"/><stop stop-opacity="1" stop-color="rgb(94.708252%, 95.861816%, 95.861816%)" offset="0.094571"/><stop stop-opacity="1" stop-color="rgb(94.898987%, 96.011353%, 96.011353%)" offset="0.125"/><stop stop-opacity="1" stop-color="rgb(95.088196%, 96.159363%, 96.159363%)" offset="0.1875"/><stop stop-opacity="1" stop-color="rgb(95.46814%, 96.456909%, 96.456909%)" offset="0.25"/><stop stop-opacity="1" stop-color="rgb(95.848083%, 96.754456%, 96.754456%)" offset="0.3125"/><stop stop-opacity="1" stop-color="rgb(96.228027%, 97.050476%, 97.050476%)" offset="0.375"/><stop stop-opacity="1" stop-color="rgb(96.607971%, 97.348022%, 97.348022%)" offset="0.4375"/><stop stop-opacity="1" stop-color="rgb(96.987915%, 97.645569%, 97.645569%)" offset="0.5"/><stop stop-opacity="1" stop-color="rgb(97.367859%, 97.941589%, 97.941589%)" offset="0.5625"/><stop stop-opacity="1" stop-color="rgb(97.747803%, 98.239136%, 98.239136%)" offset="0.625"/><stop stop-opacity="1" stop-color="rgb(98.127747%, 98.536682%, 98.536682%)" offset="0.6875"/><stop stop-opacity="1" stop-color="rgb(98.50769%, 98.834229%, 98.834229%)" offset="0.75"/><stop stop-opacity="1" stop-color="rgb(98.88916%, 99.130249%, 99.130249%)" offset="0.8125"/><stop stop-opacity="1" stop-color="rgb(99.269104%, 99.427795%, 99.427795%)" offset="0.875"/><stop stop-opacity="1" stop-color="rgb(99.649048%, 99.725342%, 99.725342%)" offset="0.905429"/><stop stop-opacity="1" stop-color="rgb(99.839783%, 99.874878%, 99.874878%)" offset="0.9375"/><stop stop-opacity="1" stop-color="rgb(99.919128%, 99.937439%, 99.937439%)" offset="1"/></linearGradient><clipPath id="5b62ec8223"><path d="M 201 142 L 255 142 L 255 196.5 L 201 196.5 Z M 201 142 " clip-rule="nonzero"/></clipPath><clipPath id="3bb7838967"><path d="M 237.332031 196.527344 C 232.859375 196.527344 228.253906 194.765625 224.863281 191.375 L 206.566406 173.066406 C 199.65625 166.152344 199.65625 155.03125 206.566406 148.113281 C 213.480469 141.199219 224.59375 141.199219 231.503906 148.113281 L 249.800781 166.421875 C 256.710938 173.339844 256.710938 184.457031 249.800781 191.375 C 246.414062 194.765625 241.804688 196.527344 237.332031 196.527344 Z M 237.332031 196.527344 " clip-rule="nonzero"/></clipPath><linearGradient x1="113.666643" gradientTransform="matrix(0.645783, 0, 0, 0.645783, 120.015703, 63.749998)" y1="133.638429" x2="211.259869" gradientUnits="userSpaceOnUse" y2="202.39111" id="95ac67ea6e"><stop stop-opacity="1" stop-color="rgb(94.499207%, 95.698547%, 95.698547%)" offset="0"/><stop stop-opacity="1" stop-color="rgb(94.670105%, 95.832825%, 95.832825%)" offset="0.0625"/><stop stop-opacity="1" stop-color="rgb(95.014954%, 96.102905%, 96.102905%)" offset="0.125"/><stop stop-opacity="1" stop-color="rgb(95.361328%, 96.37146%, 96.37146%)" offset="0.1875"/><stop stop-opacity="1" stop-color="rgb(95.706177%, 96.641541%, 96.641541%)" offset="0.25"/><stop stop-opacity="1" stop-color="rgb(96.051025%, 96.911621%, 96.911621%)" offset="0.3125"/><stop stop-opacity="1" stop-color="rgb(96.395874%, 97.181702%, 97.181702%)" offset="0.375"/><stop stop-opacity="1" stop-color="rgb(96.742249%, 97.451782%, 97.451782%)" offset="0.413125"/><stop stop-opacity="1" stop-color="rgb(96.914673%, 97.587585%, 97.587585%)" offset="0.4375"/><stop stop-opacity="1" stop-color="rgb(97.087097%, 97.721863%, 97.721863%)" offset="0.5"/><stop stop-opacity="1" stop-color="rgb(97.431946%, 97.991943%, 97.991943%)" offset="0.5625"/><stop stop-opacity="1" stop-color="rgb(97.776794%, 98.262024%, 98.262024%)" offset="0.586875"/><stop stop-opacity="1" stop-color="rgb(97.950745%, 98.397827%, 98.397827%)" offset="0.625"/><stop stop-opacity="1" stop-color="rgb(98.123169%, 98.532104%, 98.532104%)" offset="0.6875"/><stop stop-opacity="1" stop-color="rgb(98.468018%, 98.802185%, 98.802185%)" offset="0.75"/><stop stop-opacity="1" stop-color="rgb(98.812866%, 99.072266%, 99.072266%)" offset="0.8125"/><stop stop-opacity="1" stop-color="rgb(99.159241%, 99.34082%, 99.34082%)" offset="0.875"/><stop stop-opacity="1" stop-color="rgb(99.504089%, 99.610901%, 99.610901%)" offset="0.9375"/><stop stop-opacity="1" stop-color="rgb(99.838257%, 99.873352%, 99.873352%)" offset="1"/></linearGradient></defs><g clip-path="url(#b31eb5644f)"><g clip-path="url(#db24b99e3a)"><path fill="url(#7311a4789a)" d="M 120.015625 64.140625 L 120.015625 194.589844 L 250.464844 194.589844 L 250.464844 64.140625 Z M 120.015625 64.140625 " fill-rule="nonzero"/></g></g><g clip-path="url(#5b62ec8223)"><g clip-path="url(#3bb7838967)"><path fill="url(#95ac67ea6e)" d="M 199.65625 141.199219 L 199.65625 196.5 L 255 196.5 L 255 141.199219 Z M 199.65625 141.199219 " fill-rule="nonzero"/></g></g><g fill="#545454" fill-opacity="1"><g transform="translate(89.084386, 274.050071)"><g><path d="M 3.8125 -25.203125 C 3.8125 -28.796875 4.484375 -32.164062 5.828125 -35.3125 C 7.171875 -38.457031 9.03125 -41.21875 11.40625 -43.59375 C 13.78125 -45.96875 16.613281 -47.835938 19.90625 -49.203125 C 23.195312 -50.578125 26.785156 -51.265625 30.671875 -51.265625 C 34.554688 -51.265625 38.128906 -50.578125 41.390625 -49.203125 C 44.660156 -47.835938 47.484375 -45.988281 49.859375 -43.65625 C 52.234375 -41.332031 54.082031 -38.597656 55.40625 -35.453125 C 56.726562 -32.316406 57.390625 -28.945312 57.390625 -25.34375 L 57.390625 -25.203125 C 57.390625 -22.460938 56.992188 -19.90625 56.203125 -17.53125 C 55.410156 -15.15625 54.316406 -12.890625 52.921875 -10.734375 L 55.078125 -8.921875 C 55.648438 -8.398438 56.128906 -7.800781 56.515625 -7.125 C 56.898438 -6.457031 57.09375 -5.664062 57.09375 -4.75 C 57.09375 -3.3125 56.585938 -2.078125 55.578125 -1.046875 C 54.578125 -0.015625 53.351562 0.5 51.90625 0.5 C 51.144531 0.5 50.460938 0.34375 49.859375 0.03125 C 49.253906 -0.28125 48.710938 -0.628906 48.234375 -1.015625 L 45.5 -3.453125 C 41.132812 -0.578125 36.144531 0.859375 30.53125 0.859375 C 26.644531 0.859375 23.066406 0.175781 19.796875 -1.1875 C 16.535156 -2.550781 13.71875 -4.394531 11.34375 -6.71875 C 8.96875 -9.050781 7.117188 -11.789062 5.796875 -14.9375 C 4.472656 -18.082031 3.8125 -21.457031 3.8125 -25.0625 Z M 15.40625 -25.34375 L 15.40625 -25.203125 C 15.40625 -23.035156 15.773438 -20.992188 16.515625 -19.078125 C 17.265625 -17.160156 18.320312 -15.476562 19.6875 -14.03125 C 21.0625 -12.59375 22.679688 -11.453125 24.546875 -10.609375 C 26.421875 -9.773438 28.460938 -9.359375 30.671875 -9.359375 C 33.304688 -9.359375 35.515625 -9.816406 37.296875 -10.734375 L 32.046875 -15.1875 C 31.460938 -15.71875 30.976562 -16.316406 30.59375 -16.984375 C 30.21875 -17.660156 30.03125 -18.457031 30.03125 -19.375 C 30.03125 -20.8125 30.53125 -22.046875 31.53125 -23.078125 C 32.539062 -24.109375 33.765625 -24.625 35.203125 -24.625 C 36.597656 -24.625 37.820312 -24.117188 38.875 -23.109375 L 44.421875 -18.140625 C 45.335938 -20.015625 45.796875 -22.320312 45.796875 -25.0625 L 45.796875 -25.203125 C 45.796875 -27.359375 45.421875 -29.394531 44.671875 -31.3125 C 43.929688 -33.238281 42.875 -34.921875 41.5 -36.359375 C 40.132812 -37.796875 38.523438 -38.9375 36.671875 -39.78125 C 34.828125 -40.625 32.78125 -41.046875 30.53125 -41.046875 C 28.320312 -41.046875 26.28125 -40.632812 24.40625 -39.8125 C 22.53125 -39 20.929688 -37.867188 19.609375 -36.421875 C 18.296875 -34.984375 17.265625 -33.316406 16.515625 -31.421875 C 15.773438 -29.523438 15.40625 -27.5 15.40625 -25.34375 Z M 15.40625 -25.34375 "/></g></g></g><g fill="#545454" fill-opacity="1"><g transform="translate(146.67452, 274.050071)"><g><path d="M 4.609375 -33.546875 C 4.609375 -35.085938 5.132812 -36.382812 6.1875 -37.4375 C 7.25 -38.5 8.546875 -39.03125 10.078125 -39.03125 C 11.617188 -39.03125 12.914062 -38.5 13.96875 -37.4375 C 15.019531 -36.382812 15.546875 -35.085938 15.546875 -33.546875 L 15.546875 -17.0625 C 15.546875 -11.832031 17.753906 -9.21875 22.171875 -9.21875 C 24.335938 -9.21875 26.019531 -9.875 27.21875 -11.1875 C 28.414062 -12.507812 29.015625 -14.46875 29.015625 -17.0625 L 29.015625 -33.546875 C 29.015625 -35.085938 29.539062 -36.382812 30.59375 -37.4375 C 31.65625 -38.5 32.953125 -39.03125 34.484375 -39.03125 C 36.023438 -39.03125 37.320312 -38.5 38.375 -37.4375 C 39.425781 -36.382812 39.953125 -35.085938 39.953125 -33.546875 L 39.953125 -5.046875 C 39.953125 -3.503906 39.425781 -2.203125 38.375 -1.140625 C 37.320312 -0.0859375 36.023438 0.4375 34.484375 0.4375 C 32.953125 0.4375 31.65625 -0.0859375 30.59375 -1.140625 C 29.539062 -2.203125 29.015625 -3.503906 29.015625 -5.046875 L 29.015625 -5.46875 C 27.765625 -3.84375 26.25 -2.40625 24.46875 -1.15625 C 22.695312 0.09375 20.445312 0.71875 17.71875 0.71875 C 13.488281 0.71875 10.242188 -0.539062 7.984375 -3.0625 C 5.734375 -5.582031 4.609375 -9.097656 4.609375 -13.609375 Z M 4.609375 -33.546875 "/></g></g></g><g fill="#545454" fill-opacity="1"><g transform="translate(187.923304, 274.050071)"><g><path d="M 10.875 -39.03125 C 12.40625 -39.03125 13.695312 -38.5 14.75 -37.4375 C 15.8125 -36.382812 16.34375 -35.085938 16.34375 -33.546875 L 16.34375 -5.046875 C 16.34375 -3.503906 15.8125 -2.203125 14.75 -1.140625 C 13.695312 -0.0859375 12.40625 0.4375 10.875 0.4375 C 9.332031 0.4375 8.035156 -0.0859375 6.984375 -1.140625 C 5.929688 -2.203125 5.40625 -3.503906 5.40625 -5.046875 L 5.40625 -33.546875 C 5.40625 -35.085938 5.929688 -36.382812 6.984375 -37.4375 C 8.035156 -38.5 9.332031 -39.03125 10.875 -39.03125 Z M 10.875 -52.921875 C 12.601562 -52.921875 14.050781 -52.460938 15.21875 -51.546875 C 16.394531 -50.640625 16.984375 -49.394531 16.984375 -47.8125 L 16.984375 -47.65625 C 16.984375 -46.070312 16.394531 -44.8125 15.21875 -43.875 C 14.050781 -42.945312 12.601562 -42.484375 10.875 -42.484375 C 9.144531 -42.484375 7.691406 -42.945312 6.515625 -43.875 C 5.335938 -44.8125 4.75 -46.070312 4.75 -47.65625 L 4.75 -47.8125 C 4.75 -49.394531 5.335938 -50.640625 6.515625 -51.546875 C 7.691406 -52.460938 9.144531 -52.921875 10.875 -52.921875 Z M 10.875 -52.921875 "/></g></g></g><g fill="#545454" fill-opacity="1"><g transform="translate(206.063825, 274.050071)"><g><path d="M 23.25 -39.3125 C 26.175781 -39.3125 28.695312 -38.9375 30.8125 -38.1875 C 32.925781 -37.445312 34.800781 -36.378906 36.4375 -34.984375 C 36.820312 -34.703125 37.203125 -34.25 37.578125 -33.625 C 37.960938 -33 38.15625 -32.207031 38.15625 -31.25 C 38.15625 -29.851562 37.675781 -28.6875 36.71875 -27.75 C 35.757812 -26.820312 34.582031 -26.359375 33.1875 -26.359375 C 32.46875 -26.359375 31.84375 -26.476562 31.3125 -26.71875 C 30.789062 -26.957031 30.363281 -27.195312 30.03125 -27.4375 C 29.0625 -28.195312 28.035156 -28.789062 26.953125 -29.21875 C 25.878906 -29.65625 24.625 -29.875 23.1875 -29.875 C 21.84375 -29.875 20.59375 -29.597656 19.4375 -29.046875 C 18.289062 -28.492188 17.296875 -27.738281 16.453125 -26.78125 C 15.609375 -25.820312 14.957031 -24.707031 14.5 -23.4375 C 14.050781 -22.164062 13.828125 -20.8125 13.828125 -19.375 L 13.828125 -19.21875 C 13.828125 -17.726562 14.050781 -16.335938 14.5 -15.046875 C 14.957031 -13.753906 15.617188 -12.625 16.484375 -11.65625 C 17.347656 -10.695312 18.378906 -9.941406 19.578125 -9.390625 C 20.785156 -8.835938 22.128906 -8.5625 23.609375 -8.5625 C 25.054688 -8.5625 26.363281 -8.789062 27.53125 -9.25 C 28.707031 -9.707031 29.800781 -10.367188 30.8125 -11.234375 C 31.101562 -11.472656 31.5 -11.695312 32 -11.90625 C 32.507812 -12.125 33.097656 -12.234375 33.765625 -12.234375 C 35.066406 -12.234375 36.160156 -11.773438 37.046875 -10.859375 C 37.929688 -9.953125 38.375 -8.851562 38.375 -7.5625 C 38.375 -6.84375 38.226562 -6.191406 37.9375 -5.609375 C 37.65625 -5.035156 37.273438 -4.535156 36.796875 -4.109375 C 35.160156 -2.617188 33.257812 -1.414062 31.09375 -0.5 C 28.9375 0.40625 26.273438 0.859375 23.109375 0.859375 C 20.234375 0.859375 17.554688 0.332031 15.078125 -0.71875 C 12.609375 -1.769531 10.484375 -3.195312 8.703125 -5 C 6.929688 -6.800781 5.539062 -8.910156 4.53125 -11.328125 C 3.53125 -13.753906 3.03125 -16.335938 3.03125 -19.078125 L 3.03125 -19.21875 C 3.03125 -21.957031 3.53125 -24.550781 4.53125 -27 C 5.539062 -29.445312 6.929688 -31.582031 8.703125 -33.40625 C 10.484375 -35.226562 12.617188 -36.664062 15.109375 -37.71875 C 17.609375 -38.78125 20.320312 -39.3125 23.25 -39.3125 Z M 23.25 -39.3125 "/></g></g></g><g fill="#545454" fill-opacity="1"><g transform="translate(243.569213, 274.050071)"><g><path d="M 4.890625 -47.515625 C 4.890625 -49.054688 5.414062 -50.351562 6.46875 -51.40625 C 7.53125 -52.457031 8.832031 -52.984375 10.375 -52.984375 C 11.90625 -52.984375 13.195312 -52.457031 14.25 -51.40625 C 15.3125 -50.351562 15.84375 -49.054688 15.84375 -47.515625 L 15.84375 -23.609375 L 29.515625 -36.578125 C 30.335938 -37.347656 31.109375 -37.945312 31.828125 -38.375 C 32.546875 -38.8125 33.382812 -39.03125 34.34375 -39.03125 C 35.832031 -39.03125 37.007812 -38.523438 37.875 -37.515625 C 38.738281 -36.503906 39.171875 -35.375 39.171875 -34.125 C 39.171875 -33.164062 38.941406 -32.3125 38.484375 -31.5625 C 38.023438 -30.820312 37.410156 -30.09375 36.640625 -29.375 L 28.015625 -21.953125 L 38.296875 -8.0625 C 39.210938 -6.863281 39.671875 -5.6875 39.671875 -4.53125 C 39.671875 -3.039062 39.164062 -1.835938 38.15625 -0.921875 C 37.144531 -0.015625 35.945312 0.4375 34.5625 0.4375 C 33.457031 0.4375 32.554688 0.242188 31.859375 -0.140625 C 31.160156 -0.523438 30.476562 -1.175781 29.8125 -2.09375 L 20.234375 -15.265625 L 15.84375 -11.296875 L 15.84375 -5.046875 C 15.84375 -3.503906 15.3125 -2.203125 14.25 -1.140625 C 13.195312 -0.0859375 11.90625 0.4375 10.375 0.4375 C 8.832031 0.4375 7.53125 -0.0859375 6.46875 -1.140625 C 5.414062 -2.203125 4.890625 -3.503906 4.890625 -5.046875 Z M 4.890625 -47.515625 "/></g></g></g><g fill="#a6a6a6" fill-opacity="1"><g transform="translate(149.855042, 292.200097)"><g><path d="M 0.390625 -2.515625 C 0.390625 -2.972656 0.453125 -3.382812 0.578125 -3.75 C 0.703125 -4.113281 0.878906 -4.421875 1.109375 -4.671875 C 1.335938 -4.921875 1.609375 -5.113281 1.921875 -5.25 C 2.242188 -5.382812 2.59375 -5.453125 2.96875 -5.453125 C 3.132812 -5.453125 3.285156 -5.4375 3.421875 -5.40625 C 3.554688 -5.382812 3.675781 -5.351562 3.78125 -5.3125 C 3.882812 -5.28125 3.972656 -5.242188 4.046875 -5.203125 C 4.117188 -5.160156 4.171875 -5.117188 4.203125 -5.078125 C 4.253906 -5.023438 4.289062 -4.972656 4.3125 -4.921875 C 4.332031 -4.878906 4.34375 -4.828125 4.34375 -4.765625 C 4.34375 -4.660156 4.3125 -4.578125 4.25 -4.515625 C 4.1875 -4.460938 4.109375 -4.4375 4.015625 -4.4375 C 3.953125 -4.4375 3.894531 -4.453125 3.84375 -4.484375 C 3.789062 -4.515625 3.722656 -4.546875 3.640625 -4.578125 C 3.554688 -4.617188 3.457031 -4.65625 3.34375 -4.6875 C 3.226562 -4.71875 3.085938 -4.734375 2.921875 -4.734375 C 2.691406 -4.734375 2.476562 -4.6875 2.28125 -4.59375 C 2.082031 -4.507812 1.910156 -4.378906 1.765625 -4.203125 C 1.628906 -4.023438 1.515625 -3.800781 1.421875 -3.53125 C 1.335938 -3.269531 1.296875 -2.96875 1.296875 -2.625 C 1.296875 -2.3125 1.335938 -2.03125 1.421875 -1.78125 C 1.503906 -1.539062 1.617188 -1.335938 1.765625 -1.171875 C 1.921875 -1.003906 2.097656 -0.875 2.296875 -0.78125 C 2.503906 -0.695312 2.726562 -0.65625 2.96875 -0.65625 C 3.132812 -0.65625 3.273438 -0.671875 3.390625 -0.703125 C 3.503906 -0.734375 3.601562 -0.765625 3.6875 -0.796875 C 3.769531 -0.835938 3.835938 -0.867188 3.890625 -0.890625 C 3.953125 -0.921875 4.015625 -0.9375 4.078125 -0.9375 C 4.160156 -0.9375 4.226562 -0.90625 4.28125 -0.84375 C 4.332031 -0.789062 4.359375 -0.722656 4.359375 -0.640625 C 4.359375 -0.503906 4.296875 -0.390625 4.171875 -0.296875 C 4.046875 -0.203125 3.898438 -0.128906 3.734375 -0.078125 C 3.566406 -0.0234375 3.394531 0.0078125 3.21875 0.03125 C 3.050781 0.0507812 2.921875 0.0625 2.828125 0.0625 C 2.460938 0.0625 2.128906 0.00390625 1.828125 -0.109375 C 1.535156 -0.234375 1.28125 -0.40625 1.0625 -0.625 C 0.851562 -0.851562 0.6875 -1.125 0.5625 -1.4375 C 0.445312 -1.757812 0.390625 -2.117188 0.390625 -2.515625 Z M 0.390625 -2.515625 "/></g></g></g><g fill="#a6a6a6" fill-opacity="1"><g transform="translate(158.511213, 292.200097)"><g><path d="M 2.96875 -5.46875 C 3.34375 -5.46875 3.679688 -5.40625 3.984375 -5.28125 C 4.296875 -5.15625 4.5625 -4.976562 4.78125 -4.75 C 5 -4.519531 5.164062 -4.238281 5.28125 -3.90625 C 5.40625 -3.570312 5.46875 -3.191406 5.46875 -2.765625 C 5.46875 -2.316406 5.40625 -1.914062 5.28125 -1.5625 C 5.15625 -1.21875 4.976562 -0.921875 4.75 -0.671875 C 4.519531 -0.429688 4.242188 -0.242188 3.921875 -0.109375 C 3.609375 0.015625 3.257812 0.078125 2.875 0.078125 C 2.507812 0.078125 2.171875 0.0195312 1.859375 -0.09375 C 1.554688 -0.21875 1.296875 -0.394531 1.078125 -0.625 C 0.859375 -0.863281 0.6875 -1.148438 0.5625 -1.484375 C 0.445312 -1.816406 0.390625 -2.191406 0.390625 -2.609375 C 0.390625 -3.054688 0.453125 -3.457031 0.578125 -3.8125 C 0.703125 -4.164062 0.878906 -4.460938 1.109375 -4.703125 C 1.335938 -4.953125 1.609375 -5.140625 1.921875 -5.265625 C 2.242188 -5.398438 2.59375 -5.46875 2.96875 -5.46875 Z M 1.296875 -2.703125 C 1.296875 -2.367188 1.335938 -2.070312 1.421875 -1.8125 C 1.515625 -1.5625 1.632812 -1.347656 1.78125 -1.171875 C 1.925781 -0.992188 2.097656 -0.859375 2.296875 -0.765625 C 2.492188 -0.679688 2.707031 -0.640625 2.9375 -0.640625 C 3.15625 -0.640625 3.363281 -0.679688 3.5625 -0.765625 C 3.757812 -0.859375 3.929688 -0.988281 4.078125 -1.15625 C 4.222656 -1.332031 4.335938 -1.546875 4.421875 -1.796875 C 4.503906 -2.054688 4.546875 -2.351562 4.546875 -2.6875 C 4.546875 -3.019531 4.503906 -3.3125 4.421875 -3.5625 C 4.335938 -3.820312 4.222656 -4.035156 4.078125 -4.203125 C 3.929688 -4.378906 3.753906 -4.507812 3.546875 -4.59375 C 3.347656 -4.6875 3.140625 -4.734375 2.921875 -4.734375 C 2.691406 -4.734375 2.476562 -4.6875 2.28125 -4.59375 C 2.082031 -4.507812 1.910156 -4.378906 1.765625 -4.203125 C 1.617188 -4.035156 1.503906 -3.820312 1.421875 -3.5625 C 1.335938 -3.3125 1.296875 -3.023438 1.296875 -2.703125 Z M 1.296875 -2.703125 "/></g></g></g><g fill="#a6a6a6" fill-opacity="1"><g transform="translate(168.35941, 292.200097)"><g><path d="M 0.703125 -4.796875 C 0.703125 -5.203125 0.910156 -5.40625 1.328125 -5.40625 C 1.503906 -5.40625 1.644531 -5.363281 1.75 -5.28125 C 1.851562 -5.195312 1.953125 -5.078125 2.046875 -4.921875 L 3.953125 -1.875 C 4.023438 -1.769531 4.082031 -1.671875 4.125 -1.578125 C 4.175781 -1.484375 4.222656 -1.394531 4.265625 -1.3125 L 4.40625 -1.0625 L 4.421875 -1.078125 L 4.390625 -1.375 C 4.378906 -1.457031 4.367188 -1.554688 4.359375 -1.671875 C 4.359375 -1.785156 4.359375 -1.90625 4.359375 -2.03125 L 4.34375 -5.046875 C 4.320312 -5.285156 4.453125 -5.40625 4.734375 -5.40625 C 5.003906 -5.40625 5.140625 -5.285156 5.140625 -5.046875 L 5.140625 -0.59375 C 5.140625 -0.175781 4.929688 0.03125 4.515625 0.03125 C 4.335938 0.03125 4.195312 -0.0078125 4.09375 -0.09375 C 3.988281 -0.1875 3.894531 -0.304688 3.8125 -0.453125 L 1.890625 -3.515625 C 1.828125 -3.609375 1.769531 -3.703125 1.71875 -3.796875 C 1.664062 -3.898438 1.617188 -3.988281 1.578125 -4.0625 C 1.554688 -4.101562 1.535156 -4.144531 1.515625 -4.1875 C 1.492188 -4.226562 1.472656 -4.269531 1.453125 -4.3125 L 1.4375 -4.3125 L 1.453125 -4.015625 C 1.460938 -3.921875 1.46875 -3.816406 1.46875 -3.703125 C 1.476562 -3.585938 1.484375 -3.472656 1.484375 -3.359375 L 1.515625 -0.34375 C 1.523438 -0.226562 1.492188 -0.132812 1.421875 -0.0625 C 1.347656 0 1.242188 0.03125 1.109375 0.03125 C 0.972656 0.03125 0.867188 0 0.796875 -0.0625 C 0.734375 -0.132812 0.703125 -0.226562 0.703125 -0.34375 Z M 0.703125 -4.796875 "/></g></g></g><g fill="#a6a6a6" fill-opacity="1"><g transform="translate(178.207606, 292.200097)"><g><path d="M 0.1875 -5.015625 C 0.1875 -5.140625 0.238281 -5.238281 0.34375 -5.3125 C 0.457031 -5.382812 0.570312 -5.421875 0.6875 -5.421875 C 0.8125 -5.421875 0.898438 -5.382812 0.953125 -5.3125 C 0.984375 -5.28125 1.007812 -5.238281 1.03125 -5.1875 C 1.050781 -5.144531 1.078125 -5.082031 1.109375 -5 L 2.1875 -1.65625 C 2.226562 -1.5625 2.257812 -1.460938 2.28125 -1.359375 C 2.3125 -1.265625 2.335938 -1.1875 2.359375 -1.125 L 2.421875 -0.875 L 2.4375 -0.875 L 2.5 -1.125 C 2.507812 -1.1875 2.523438 -1.265625 2.546875 -1.359375 C 2.578125 -1.453125 2.609375 -1.550781 2.640625 -1.65625 L 3.703125 -5 C 3.722656 -5.082031 3.742188 -5.144531 3.765625 -5.1875 C 3.785156 -5.238281 3.8125 -5.285156 3.84375 -5.328125 C 3.90625 -5.390625 4 -5.421875 4.125 -5.421875 C 4.21875 -5.421875 4.316406 -5.382812 4.421875 -5.3125 C 4.523438 -5.25 4.578125 -5.160156 4.578125 -5.046875 C 4.578125 -5.015625 4.570312 -4.976562 4.5625 -4.9375 C 4.5625 -4.894531 4.546875 -4.835938 4.515625 -4.765625 L 3.078125 -0.5 C 3.003906 -0.320312 2.921875 -0.1875 2.828125 -0.09375 C 2.742188 -0.0078125 2.597656 0.03125 2.390625 0.03125 C 2.191406 0.03125 2.039062 -0.0078125 1.9375 -0.09375 C 1.832031 -0.1875 1.753906 -0.320312 1.703125 -0.5 L 0.25 -4.71875 C 0.226562 -4.800781 0.210938 -4.859375 0.203125 -4.890625 C 0.191406 -4.929688 0.1875 -4.972656 0.1875 -5.015625 Z M 0.1875 -5.015625 "/></g></g></g><g fill="#a6a6a6" fill-opacity="1"><g transform="translate(186.983775, 292.200097)"><g><path d="M 0.703125 -0.421875 L 0.703125 -4.96875 C 0.703125 -5.25 0.84375 -5.390625 1.125 -5.390625 L 3.546875 -5.390625 C 3.640625 -5.390625 3.710938 -5.359375 3.765625 -5.296875 C 3.828125 -5.234375 3.859375 -5.144531 3.859375 -5.03125 C 3.859375 -4.914062 3.828125 -4.828125 3.765625 -4.765625 C 3.710938 -4.703125 3.640625 -4.671875 3.546875 -4.671875 L 1.59375 -4.671875 L 1.59375 -3.109375 L 3.265625 -3.109375 C 3.367188 -3.109375 3.445312 -3.078125 3.5 -3.015625 C 3.550781 -2.953125 3.578125 -2.867188 3.578125 -2.765625 C 3.578125 -2.640625 3.550781 -2.546875 3.5 -2.484375 C 3.445312 -2.429688 3.367188 -2.40625 3.265625 -2.40625 L 1.59375 -2.40625 L 1.59375 -0.71875 L 3.5625 -0.71875 C 3.65625 -0.71875 3.726562 -0.6875 3.78125 -0.625 C 3.84375 -0.5625 3.875 -0.472656 3.875 -0.359375 C 3.875 -0.234375 3.84375 -0.140625 3.78125 -0.078125 C 3.726562 -0.0234375 3.65625 0 3.5625 0 L 1.125 0 C 0.84375 0 0.703125 -0.140625 0.703125 -0.421875 Z M 0.703125 -0.421875 "/></g></g></g><g fill="#a6a6a6" fill-opacity="1"><g transform="translate(195.191931, 292.200097)"><g><path d="M 0.703125 -0.375 L 0.703125 -4.96875 C 0.703125 -5.25 0.84375 -5.390625 1.125 -5.390625 L 2.234375 -5.390625 C 2.585938 -5.390625 2.890625 -5.351562 3.140625 -5.28125 C 3.398438 -5.207031 3.613281 -5.101562 3.78125 -4.96875 C 3.945312 -4.832031 4.066406 -4.671875 4.140625 -4.484375 C 4.222656 -4.304688 4.265625 -4.109375 4.265625 -3.890625 C 4.265625 -3.503906 4.148438 -3.179688 3.921875 -2.921875 C 3.703125 -2.671875 3.421875 -2.5 3.078125 -2.40625 L 4.203125 -0.6875 C 4.242188 -0.632812 4.269531 -0.585938 4.28125 -0.546875 C 4.300781 -0.503906 4.3125 -0.457031 4.3125 -0.40625 C 4.3125 -0.34375 4.296875 -0.285156 4.265625 -0.234375 C 4.242188 -0.179688 4.207031 -0.132812 4.15625 -0.09375 C 4.113281 -0.0507812 4.0625 -0.0195312 4 0 C 3.9375 0.03125 3.875 0.046875 3.8125 0.046875 C 3.75 0.046875 3.691406 0.03125 3.640625 0 C 3.597656 -0.0195312 3.5625 -0.046875 3.53125 -0.078125 C 3.507812 -0.109375 3.488281 -0.132812 3.46875 -0.15625 C 3.445312 -0.175781 3.421875 -0.210938 3.390625 -0.265625 L 2.171875 -2.25 L 1.578125 -2.25 L 1.578125 -0.375 C 1.578125 -0.101562 1.429688 0.03125 1.140625 0.03125 C 0.847656 0.03125 0.703125 -0.101562 0.703125 -0.375 Z M 1.578125 -4.6875 L 1.578125 -2.9375 L 2.203125 -2.9375 C 2.597656 -2.9375 2.890625 -3.019531 3.078125 -3.1875 C 3.265625 -3.363281 3.359375 -3.578125 3.359375 -3.828125 C 3.359375 -4.085938 3.269531 -4.296875 3.09375 -4.453125 C 2.914062 -4.609375 2.613281 -4.6875 2.1875 -4.6875 Z M 1.578125 -4.6875 "/></g></g></g><g fill="#a6a6a6" fill-opacity="1"><g transform="translate(203.856098, 292.200097)"><g><path d="M 0.09375 -5.015625 C 0.09375 -5.140625 0.117188 -5.234375 0.171875 -5.296875 C 0.234375 -5.359375 0.316406 -5.390625 0.421875 -5.390625 L 3.984375 -5.390625 C 4.085938 -5.390625 4.164062 -5.359375 4.21875 -5.296875 C 4.28125 -5.234375 4.3125 -5.140625 4.3125 -5.015625 C 4.3125 -4.890625 4.28125 -4.796875 4.21875 -4.734375 C 4.164062 -4.679688 4.085938 -4.65625 3.984375 -4.65625 L 2.640625 -4.65625 L 2.640625 -0.375 C 2.640625 -0.101562 2.492188 0.03125 2.203125 0.03125 C 1.910156 0.03125 1.765625 -0.101562 1.765625 -0.375 L 1.765625 -4.65625 L 0.421875 -4.65625 C 0.316406 -4.65625 0.234375 -4.679688 0.171875 -4.734375 C 0.117188 -4.796875 0.09375 -4.890625 0.09375 -5.015625 Z M 0.09375 -5.015625 "/></g></g></g><g fill="#a6a6a6" fill-opacity="1"><g transform="translate(212.264259, 292.200097)"><g><path d="M 0.703125 -0.421875 L 0.703125 -4.96875 C 0.703125 -5.25 0.84375 -5.390625 1.125 -5.390625 L 3.546875 -5.390625 C 3.640625 -5.390625 3.710938 -5.359375 3.765625 -5.296875 C 3.828125 -5.234375 3.859375 -5.144531 3.859375 -5.03125 C 3.859375 -4.914062 3.828125 -4.828125 3.765625 -4.765625 C 3.710938 -4.703125 3.640625 -4.671875 3.546875 -4.671875 L 1.59375 -4.671875 L 1.59375 -3.109375 L 3.265625 -3.109375 C 3.367188 -3.109375 3.445312 -3.078125 3.5 -3.015625 C 3.550781 -2.953125 3.578125 -2.867188 3.578125 -2.765625 C 3.578125 -2.640625 3.550781 -2.546875 3.5 -2.484375 C 3.445312 -2.429688 3.367188 -2.40625 3.265625 -2.40625 L 1.59375 -2.40625 L 1.59375 -0.71875 L 3.5625 -0.71875 C 3.65625 -0.71875 3.726562 -0.6875 3.78125 -0.625 C 3.84375 -0.5625 3.875 -0.472656 3.875 -0.359375 C 3.875 -0.234375 3.84375 -0.140625 3.78125 -0.078125 C 3.726562 -0.0234375 3.65625 0 3.5625 0 L 1.125 0 C 0.84375 0 0.703125 -0.140625 0.703125 -0.421875 Z M 0.703125 -0.421875 "/></g></g></g><g fill="#a6a6a6" fill-opacity="1"><g transform="translate(220.472416, 292.200097)"><g><path d="M 0.703125 -0.375 L 0.703125 -4.96875 C 0.703125 -5.25 0.84375 -5.390625 1.125 -5.390625 L 2.234375 -5.390625 C 2.585938 -5.390625 2.890625 -5.351562 3.140625 -5.28125 C 3.398438 -5.207031 3.613281 -5.101562 3.78125 -4.96875 C 3.945312 -4.832031 4.066406 -4.671875 4.140625 -4.484375 C 4.222656 -4.304688 4.265625 -4.109375 4.265625 -3.890625 C 4.265625 -3.503906 4.148438 -3.179688 3.921875 -2.921875 C 3.703125 -2.671875 3.421875 -2.5 3.078125 -2.40625 L 4.203125 -0.6875 C 4.242188 -0.632812 4.269531 -0.585938 4.28125 -0.546875 C 4.300781 -0.503906 4.3125 -0.457031 4.3125 -0.40625 C 4.3125 -0.34375 4.296875 -0.285156 4.265625 -0.234375 C 4.242188 -0.179688 4.207031 -0.132812 4.15625 -0.09375 C 4.113281 -0.0507812 4.0625 -0.0195312 4 0 C 3.9375 0.03125 3.875 0.046875 3.8125 0.046875 C 3.75 0.046875 3.691406 0.03125 3.640625 0 C 3.597656 -0.0195312 3.5625 -0.046875 3.53125 -0.078125 C 3.507812 -0.109375 3.488281 -0.132812 3.46875 -0.15625 C 3.445312 -0.175781 3.421875 -0.210938 3.390625 -0.265625 L 2.171875 -2.25 L 1.578125 -2.25 L 1.578125 -0.375 C 1.578125 -0.101562 1.429688 0.03125 1.140625 0.03125 C 0.847656 0.03125 0.703125 -0.101562 0.703125 -0.375 Z M 1.578125 -4.6875 L 1.578125 -2.9375 L 2.203125 -2.9375 C 2.597656 -2.9375 2.890625 -3.019531 3.078125 -3.1875 C 3.265625 -3.363281 3.359375 -3.578125 3.359375 -3.828125 C 3.359375 -4.085938 3.269531 -4.296875 3.09375 -4.453125 C 2.914062 -4.609375 2.613281 -4.6875 2.1875 -4.6875 Z M 1.578125 -4.6875 "/></g></g></g></svg>